HIERARCHY
ROOT RootJoint
{
    OFFSET   0.000000   0.000000   0.000000
    CHANNELS 6 Xposition Yposition Zposition Xrotation Yrotation Zrotation
    JOINT pelvis_lowerback
    {
        OFFSET   0.000000   0.093605   0.000000
        CHANNELS 3 Xrotation Yrotation Zrotation
        JOINT lowerback_torso
        {
            OFFSET   0.000000   0.100000   0.000000
            CHANNELS 3 Xrotation Yrotation Zrotation
            JOINT torso_head
            {
                OFFSET   0.000000   0.282350   0.000000
                CHANNELS 3 Xrotation Yrotation Zrotation
                End Site
                {
                    OFFSET   0.000000   0.192650   0.000000
                }
            }
            JOINT rTorso_Clavicle
            {
                OFFSET  -0.001000   0.157500   0.000000
                CHANNELS 3 Xrotation Yrotation Zrotation
                JOINT rShoulder
                {
                    OFFSET  -0.117647   0.000000   0.000000
                    CHANNELS 3 Xrotation Yrotation Zrotation
                    JOINT rElbow
                    {
                        OFFSET  -0.245000   0.000000   0.000000
                        CHANNELS 3 Xrotation Yrotation Zrotation
                        JOINT rWrist
                        {
                            OFFSET  -0.240000   0.000000   0.000000
                            CHANNELS 3 Xrotation Yrotation Zrotation
                            End Site
                            {
                                OFFSET  -0.116353  -0.002500   0.000000
                            }
                        }
                    }
                }
            }
            JOINT lTorso_Clavicle
            {
                OFFSET   0.001000   0.157500   0.000000
                CHANNELS 3 Xrotation Yrotation Zrotation
                JOINT lShoulder
                {
                    OFFSET   0.117647   0.000000   0.000000
                    CHANNELS 3 Xrotation Yrotation Zrotation
                    JOINT lElbow
                    {
                        OFFSET   0.245000   0.000000   0.000000
                        CHANNELS 3 Xrotation Yrotation Zrotation
                        JOINT lWrist
                        {
                            OFFSET   0.240000   0.000000   0.000000
                            CHANNELS 3 Xrotation Yrotation Zrotation
                            End Site
                            {
                                OFFSET   0.116353  -0.002500   0.000000
                            }
                        }
                    }
                }
            }
        }
    }
    JOINT rHip
    {
        OFFSET  -0.100000  -0.051395   0.000000
        CHANNELS 3 Xrotation Yrotation Zrotation
        JOINT rKnee
        {
            OFFSET   0.000000  -0.410000   0.000000
            CHANNELS 3 Xrotation Yrotation Zrotation
            JOINT rAnkle
            {
                OFFSET   0.000000  -0.390000   0.000000
                CHANNELS 3 Xrotation Yrotation Zrotation
                JOINT rToeJoint
                {
                    OFFSET   0.000000  -0.050000   0.130000
                    CHANNELS 3 Xrotation Yrotation Zrotation
                    End Site
                    {
                        OFFSET  -0.010000   0.002000   0.060000
                    }
                }
            }
        }
    }
    JOINT lHip
    {
        OFFSET   0.100000  -0.051395   0.000000
        CHANNELS 3 Xrotation Yrotation Zrotation
        JOINT lKnee
        {
            OFFSET   0.000000  -0.410000   0.000000
            CHANNELS 3 Xrotation Yrotation Zrotation
            JOINT lAnkle
            {
                OFFSET   0.000000  -0.390000   0.000000
                CHANNELS 3 Xrotation Yrotation Zrotation
                JOINT lToeJoint
                {
                    OFFSET   0.000000  -0.050000   0.130000
                    CHANNELS 3 Xrotation Yrotation Zrotation
                    End Site
                    {
                        OFFSET   0.010000   0.002000   0.060000
                    }
                }
            }
        }
    }
}
MOTION
Frames: 17
Frame Time:   0.008333
 -2.299343   0.853965   4.187461   9.795754  -6.252574   2.390858   3.683037   7.908801  -7.393992   6.878258   3.085535  -0.457761 -13.231230  -9.048605   0.342034  -1.061247   0.523973   5.196406   1.771266   8.042134  44.819607   0.046937  88.960935  -0.052845  -1.680629   4.481904   0.228673  12.573600  12.354914  -3.208240  37.967883  12.153815 -42.810363   0.002702 -67.759590  -0.028850  -0.931355  -7.668359   3.717012  12.013248  -3.029004 -12.074815  35.876266   0.058684   0.020127  11.798528  -2.489942   5.068773 -20.153509   0.061936  -0.007839 -44.002136   4.678953   1.975794  66.117595  -0.028638  -0.047375 -34.568259   5.690458   3.551218  -2.944298  -0.001415  -0.004875
 -2.296364   0.853451   4.200779   9.398858  -5.353526   1.884861   3.695903   7.386680  -7.005976   6.884224   2.792505  -0.462707 -13.150132  -9.071613   0.575593  -0.772227   0.375296   5.277964   2.808667   7.687956  44.610436  -0.123029  86.421985   0.123169  -1.589634   5.882500   0.204573  12.356606  12.446208  -3.497423  36.753648  12.106450 -42.538739  -0.004571 -68.235596  -0.032858  -0.865975  -7.489079   3.728098  11.076872  -3.443501 -11.957477  39.801537   0.062388   0.005651  11.845671  -2.711206   4.895757 -18.182955   0.064200  -0.015783 -41.836484   4.160208   1.791986  64.262663  -0.025788  -0.045053 -36.277657   5.560024   3.645041  -2.888059  -0.001126  -0.003672
 -2.293286   0.852282   4.214304   9.000031  -4.385111   1.407870   3.665044   6.793564  -6.614504   6.879179   2.403343  -0.441397 -13.073311  -9.077684   0.800759  -0.401969   0.199676   5.435007   3.871061   7.255386  44.415303  -0.105941  83.844527   0.108163  -1.500330   6.201493   0.115748  12.014092  12.401448  -3.832669  35.483864  11.954163 -42.245009  -0.010848 -68.703976  -0.036113  -0.803352  -7.366737   3.943600  10.040458  -3.834501 -11.871418  43.771361   0.065729  -0.004953  11.873863  -2.922887   4.733807 -16.499235   0.063654  -0.020241 -39.541504   3.647880   1.594545  62.770967  -0.023454  -0.042170 -37.871893   5.435897   3.731042  -2.876204  -0.000909  -0.002886
 -2.290175   0.850379   4.227944   8.633336  -3.369974   0.960100   3.586282   6.126183  -6.235882   6.843120   1.918888  -0.406570 -13.004652  -9.081927   1.016693   0.004944  -0.011432   5.618250   4.913876   6.806791  44.252676  -0.071238  81.393224   0.073210  -1.414050   6.109888   0.049984  11.622525  12.275049  -4.177497  34.233677  11.741704 -41.958472  -0.015881 -69.168140  -0.038248  -0.735910  -7.384947   4.201955   8.915991  -4.169063 -11.806470  47.715658   0.069145  -0.011697  11.898369  -3.120204   4.582371 -14.965418   0.062156  -0.022289 -37.181922   3.164088   1.422775  61.496382  -0.021664  -0.039500 -39.355870   5.318828   3.808252  -2.867921  -0.000735  -0.002271
 -2.287055   0.847684   4.241635   8.300532  -2.322665   0.538812   3.472042   5.399423  -5.877529   6.780106   1.359407  -0.366645 -12.944005  -9.086625   1.221907   0.422058  -0.249124   5.802324   5.916639   6.357041  44.113105  -0.038318  79.089496   0.039063  -1.331508   5.885222  -0.007957  11.209716  12.094824  -4.510778  33.024885  11.495208 -41.680117  -0.019719 -69.621621  -0.039296  -0.663602  -7.516139   4.467004   7.724995  -4.451361 -11.761781  51.623690   0.072742  -0.015858  11.918955  -3.303951   4.440715 -13.566584   0.060117  -0.022805 -34.797001   2.706306   1.290717  60.380965  -0.020208  -0.037064 -40.737804   5.208669   3.877657  -2.858951  -0.000598  -0.001773
 -2.283940   0.844155   4.255332   7.998475  -1.251708   0.142017   3.334585   4.630817  -5.544248   6.697448   0.745423  -0.326685 -12.890505  -9.092107   1.415737   0.835868  -0.504930   5.974469   6.871006   5.912153  43.988679  -0.011524  76.932042   0.010776  -1.253114   5.618066  -0.076311  10.789446  11.877701  -4.821188  31.865944  11.230203 -41.408569  -0.022483 -70.060090  -0.039431  -0.587022  -7.727632   4.737785   6.489476  -4.688033 -11.737209  55.496965   0.076584  -0.018416  11.935917  -3.475111   4.308211 -12.291289   0.057783  -0.022400 -32.417863   2.271310   1.201931  59.395159  -0.018957  -0.034783 -42.025170   5.105145   3.940263  -2.849192  -0.000491  -0.001368
 -2.280835   0.839768   4.269000   7.723895  -0.162150  -0.231860   3.183826   3.836479  -5.238620   6.601837   0.094865  -0.289773 -12.843319  -9.098283   1.597982   1.239608  -0.771921   6.129594   7.774396   5.475748  43.875029   0.008547  74.914177  -0.010721  -1.179007   5.338836  -0.163417  10.369823  11.635604  -5.104074  30.760467  10.956262 -41.143621  -0.024314 -70.481185  -0.038859  -0.506770  -7.995665   5.016915   5.229525  -4.885111 -11.731829  59.339576   0.080691  -0.020056  11.949705  -3.634603   4.184273 -11.128809   0.055309  -0.021481 -30.069725   1.857455   1.155027  58.519541  -0.017846  -0.032598 -43.224812   5.007910   3.996917  -2.839354  -0.000407  -0.001042
 -2.277612   0.835109   4.281400   7.668825   1.160812  -0.575422   3.284265   3.061776  -4.892919   6.272159  -0.601103  -0.355280 -12.941326  -9.008817   1.831640   1.567330  -1.073548   6.134395   8.779163   4.905471  43.671322   0.013686  72.241918  -0.010284  -1.021118   5.626846  -0.238909   9.938078  11.320029  -5.305821  28.721710  10.580958 -40.726748  -0.053300 -71.552085  -0.068984  -0.457632  -7.469150   4.962290   3.325753  -5.514210 -11.822780  63.367695   0.076525  -0.028217  11.609500  -3.793903   4.310318 -10.013951   0.047899  -0.022656 -27.738756   1.125088   0.962401  56.598184  -0.019112  -0.034531 -44.009350   4.732465   4.084416  -2.954760  -0.000193  -0.001169
 -2.274522   0.829755   4.293205   7.663549   2.596242  -0.922785   3.479240   2.237963  -4.552694   5.971232  -1.373845  -0.426225 -13.031959  -8.911529   2.055230   1.893330  -1.365534   6.068157   9.739279   4.321139  43.430971   0.016494  69.675639  -0.005948  -0.863367   5.520782  -0.327217   9.375405  10.861546  -5.458641  26.670765  10.104569 -40.288098  -0.078585 -72.647443  -0.093787  -0.382293  -7.386228   5.152101   1.229776  -6.125939 -11.880380  67.344175   0.073849  -0.030287  11.285074  -3.941586   4.429720  -9.035822   0.041697  -0.021675 -25.449265   0.397745   0.828480  54.561931  -0.021675  -0.038451 -44.739901   4.470200   4.160879  -3.009520  -0.000083  -0.001162
 -2.271582   0.826505   4.305034   7.269281   4.067967  -0.765910   4.086746   1.344460  -4.660090   5.886660  -2.212860  -0.657450 -13.116209  -8.818685   2.259255   2.178400  -1.563896   6.197866  10.616865   3.803278  43.276662   0.010421  67.234594   0.002892  -0.707140   5.148189  -0.403800   8.702592  10.225810  -5.671906  24.629408   9.536524 -39.830372  -0.088930 -73.667403  -0.102928  -0.299126  -7.354758   5.534996  -0.677692  -6.589797 -12.280292  71.154779   0.072834  -0.023563  10.983151  -4.084487   4.536996  -8.105401   0.036894  -0.018557 -24.077115  -0.101902   0.300144  54.754383  -0.016546  -0.029700 -45.483106   4.245637   4.191590  -2.884589  -0.000263  -0.000358
 -2.268870   0.824467   4.317503   6.703128   5.383804  -0.547359   4.708292   0.477888  -4.764036   5.906386  -3.047257  -0.936841 -13.155951  -8.727630   2.430772   2.474062  -1.761704   6.333758  11.459616   3.320297  43.164347   0.010633  64.957309   0.002810  -0.553484   4.743607  -0.338858   8.049688   9.586654  -5.907483  22.713661   8.947223 -39.438701  -0.093243 -74.637830  -0.106065  -0.212465  -7.425715   5.823473  -2.590407  -6.944241 -12.604538  74.872082   0.067452  -0.014138  10.696101  -4.220072   4.633675  -7.269015   0.031657  -0.014840 -22.580129  -0.531302  -0.172861  54.640301  -0.013594  -0.024383 -46.127176   4.037391   4.216858  -2.929065  -0.000150  -0.000479
 -2.266333   0.822989   4.330649   6.084809   6.551830  -0.352754   5.244767  -0.368315  -4.814497   5.930628  -3.868710  -1.206982 -13.178885  -8.641980   2.586205   2.778316  -1.990517   6.422722  12.268694   2.843680  43.057272   0.017508  62.835016  -0.005550  -0.404089   4.364265  -0.224857   7.449948   8.996092  -6.135248  20.943012   8.380758 -39.107534  -0.095525 -75.555720  -0.107107  -0.125323  -7.572601   6.020330  -4.578210  -7.262730 -12.813239  78.543132   0.058492  -0.003834  10.423408  -4.345625   4.723492  -6.526679   0.026242  -0.011171 -20.851883  -0.973521  -0.532024  54.274977  -0.011908  -0.021179 -46.658328   3.836026   4.248724  -2.983761  -0.000042  -0.000570
 -2.263921   0.821757   4.344363   5.447969   7.616786  -0.167483   5.698689  -1.204839  -4.836142   5.930323  -4.682093  -1.461424 -13.200561  -8.563341   2.731817   3.081167  -2.248652   6.460615  13.038118   2.366910  42.943289   0.027062  60.854073  -0.017558  -0.261601   4.005433  -0.142587   6.899204   8.452389  -6.339029  19.303776   7.847937 -38.816841  -0.097066 -76.418814  -0.107280  -0.038724  -7.756936   6.180189  -6.620442  -7.568206 -12.939792  82.182724   0.048534   0.007419  10.165439  -4.461263   4.807828  -5.865667   0.021268  -0.007697 -18.976803  -1.433135  -0.805257  53.742079  -0.010805  -0.019096 -47.155146   3.642867   4.285315  -3.029785   0.000034  -0.000582
 -2.261822   0.821815   4.357614   5.085709   8.386349  -0.182119   6.132793  -1.829226  -4.706778   5.713875  -5.182208  -1.611214 -13.214918  -8.199315   2.766565   3.522230  -2.705847   6.207073  14.163021   1.949992  42.801650   0.023307  59.505969  -0.012218  -0.197365   3.618872  -0.035048   6.208897   7.970660  -6.345476  16.834503   7.287918 -38.640959  -0.223126 -78.499716  -0.237571  -0.186438  -6.724862   5.621517  -9.484010  -7.594192 -12.818731  85.943976   0.037757   0.022077   9.584476  -4.542947   4.968871  -5.242219   0.015964  -0.003709 -17.271896  -1.992173  -0.870152  52.835975  -0.009327  -0.016913 -47.036923   3.425674   4.078263  -3.182986  -0.000135  -0.000421
 -2.259954   0.822698   4.371060   4.758324   9.071994  -0.263268   6.557748  -2.474267  -4.512501   5.480880  -5.712166  -1.707956 -13.213481  -7.833733   2.803654   3.957396  -3.161707   5.865122  15.236836   1.537386  42.636508   0.022433  58.275608  -0.010747  -0.122905   3.413893   0.200644   5.418183   7.407624  -6.261388  14.391289   6.667429 -38.445614  -0.375806 -80.578245  -0.388764  -0.276333  -6.353538   5.409419 -12.665626  -7.612735 -12.621605  89.626026   0.027458   0.036444   9.032003  -4.617796   5.119456  -4.727661   0.011511  -0.000407 -15.433110  -2.607652  -0.835406  51.620413  -0.007671  -0.014733 -46.922766   3.210886   3.901174  -3.281006  -0.000216  -0.000224
 -2.258271   0.824001   4.384830   4.463773   9.705523  -0.389075   6.940628  -3.173865  -4.276629   5.241656  -6.304806  -1.760785 -13.205530  -7.489998   2.843820   4.362987  -3.611885   5.470831  16.239966   1.126327  42.447595   0.023806  57.132183  -0.012835  -0.049673   3.266283   0.405175   4.618221   6.801383  -6.104361  12.051276   6.042515 -38.229026  -0.553158 -82.558648  -0.560413  -0.329647  -6.299096   5.386685 -16.069602  -7.634540 -12.388075  93.243412   0.019301   0.050048   8.511383  -4.687358   5.260361  -4.280073   0.008007   0.002268 -13.490373  -3.237613  -0.706378  50.179447  -0.005952  -0.012695 -46.828611   3.002897   3.748385  -3.373297  -0.000263  -0.000041
 -2.256720   0.825393   4.399033   4.175091  10.332018  -0.546318   7.289228  -3.930037  -4.004829   5.008331  -6.955242  -1.772578 -13.194758  -7.170742   2.884540   4.745811  -4.066632   5.037611  17.180771   0.709686  42.240684   0.025908  56.064123  -0.016588   0.018735   3.131768   0.529660   3.836216   6.180052  -5.883741   9.831429   5.431520 -37.999050  -0.785331 -84.429494  -0.785090  -0.361050  -6.397887   5.475550 -19.561432  -7.664186 -12.140496  96.804887   0.014954   0.062382   8.020731  -4.751777   5.392676  -3.893615   0.005529   0.004274 -11.444946  -3.870540  -0.484214  48.582698  -0.004409  -0.011165 -46.748018   2.802412   3.616865  -3.462286  -0.000276   0.000098
